<svg width="26" height="26" viewBox="0 0 26 26" fill="none" stroke="currentColor" xmlns="http://www.w3.org/2000/svg">
<path d="M21.7273 5.36365H8.63637C6.8289 5.36365 5.36365 6.8289 5.36365 8.63637V21.7273C5.36365 23.5348 6.8289 25 8.63637 25H21.7273C23.5348 25 25 23.5348 25 21.7273V8.63637C25 6.8289 23.5348 5.36365 21.7273 5.36365Z" stroke="#464646" stroke-width="2" stroke-linecap="round" stroke-linejoin="round"/>
<path d="M20.6364 5.36364V4.27273C20.6364 3.40475 20.2916 2.57232 19.6778 1.95856C19.064 1.3448 18.2316 1 17.3636 1H4.27273C3.40475 1 2.57232 1.3448 1.95856 1.95856C1.3448 2.57232 1 3.40475 1 4.27273V17.3636C1 18.2316 1.3448 19.064 1.95856 19.6778C2.57232 20.2916 3.40475 20.6364 4.27273 20.6364H5.36364" stroke="#464646" stroke-width="2" stroke-linecap="round" stroke-linejoin="round"/>
<path d="M21.05 5H8.27272C6.46525 5 5 6.46525 5 8.27272V21.05" stroke-width="2" stroke-linecap="square" stroke-linejoin="round"/>
<path d="M15.1818 10.8182V19.5454" stroke-width="2" stroke-linecap="round" stroke-linejoin="round"/>
<path d="M19.5455 15.1818H10.8182" stroke-width="2" stroke-linecap="round" stroke-linejoin="round"/>
</svg>

