<svg width="47" height="48" viewBox="0 0 47 48" fill="none" xmlns="http://www.w3.org/2000/svg">
<path fill-rule="evenodd" clip-rule="evenodd" d="M9.82726 24C9.82726 22.4757 10.0804 21.0144 10.5323 19.6437L2.62344 13.6043C1.08205 16.7339 0.213623 20.2603 0.213623 24C0.213623 27.7365 1.08099 31.2608 2.62024 34.3883L10.5248 28.3371C10.0772 26.9728 9.82726 25.5168 9.82726 24Z" fill="#FBBC05"/>
<path fill-rule="evenodd" clip-rule="evenodd" d="M23.7136 10.1333C27.025 10.1333 30.0159 11.3067 32.3659 13.2267L39.2023 6.39999C35.0364 2.77333 29.6954 0.533325 23.7136 0.533325C14.4269 0.533325 6.4454 5.84426 2.62344 13.6043L10.5323 19.6437C12.3546 14.112 17.5491 10.1333 23.7136 10.1333Z" fill="#EA4335"/>
<path fill-rule="evenodd" clip-rule="evenodd" d="M23.7136 37.8667C17.5491 37.8667 12.3546 33.888 10.5323 28.3563L2.62344 34.3947C6.4454 42.1557 14.4269 47.4667 23.7136 47.4667C29.4455 47.4667 34.9178 45.4315 39.0249 41.6181L31.5178 35.8144C29.3996 37.1488 26.7323 37.8667 23.7136 37.8667Z" fill="#34A853"/>
<path fill-rule="evenodd" clip-rule="evenodd" d="M46.1454 24C46.1454 22.6133 45.9318 21.12 45.6113 19.7333H23.7136V28.8H36.3182C35.6879 31.8912 33.9724 34.2677 31.5178 35.8144L39.0249 41.6181C43.3393 37.6139 46.1454 31.6491 46.1454 24Z" fill="#4285F4"/>
</svg>
