<svg width="82" height="47" viewBox="0 0 82 47" fill="none" xmlns="http://www.w3.org/2000/svg">
<path d="M72.5024 14.0812C70.89 15.624 68.3148 17.6192 66.6908 18.64C64.8464 19.8 62.3292 21.3196 59.7076 22.7348C59.348 22.932 59.2088 23.396 59.406 23.744C60.4384 25.542 60.8328 27.6764 61.2272 29.5788C61.4244 30.5184 61.552 31.4812 61.6216 32.444C61.6216 32.444 61.9 36.9216 62.1552 40.7844C62.5728 41.2136 63.1644 41.434 63.9532 40.8192C65.6816 39.462 66.1572 40.3668 66.1572 40.3668C66.1572 40.3668 66.4008 40.4944 66.5864 40.2392C66.7836 39.984 67.41 39.8332 67.816 40.3668C68.222 40.912 69.1964 40.39 69.1964 40.39C69.1964 40.39 69.672 40.3204 69.9968 41.26C70.1708 41.7588 70.7508 42.0488 71.2496 42.1996C71.7832 42.3736 72.166 42.8492 72.224 43.4176C72.2356 43.5452 72.2472 43.6728 72.2588 43.8004C72.2936 44.3572 72.3284 44.972 72.1196 45.494C72.0384 45.7144 71.8992 45.8884 71.6788 45.9928C71.5628 46.0508 71.47 46.0392 71.3424 46.0392C71.2148 46.0392 71.0872 46.0392 70.948 46.0392C70.0548 46.0508 69.1732 46.0392 68.28 46.0392C67.7812 46.0392 67.2824 46.0392 66.7952 46.0392C66.2152 46.0392 65.6352 46.0392 65.0552 46.0392C64.4056 46.0392 63.7444 46.0392 63.0948 46.0392C62.3756 46.0392 61.6448 46.0392 60.9256 46.0392C60.1484 46.0392 59.3596 46.0392 58.5824 46.0392C57.7472 46.0392 56.912 46.0392 56.0768 46.0392C55.1952 46.0392 54.3252 46.0392 53.4436 46.0392C52.5272 46.0392 51.6108 46.0392 50.706 46.0392C49.7664 46.0392 48.8268 46.0392 47.8756 46.0392C46.9128 46.0392 45.95 46.0392 44.9872 46.0392C44.0128 46.0392 43.0384 46.0392 42.064 46.0392C41.0896 46.0392 40.1036 46.0392 39.1292 46.0392C38.1548 46.0392 37.1804 46.0392 36.206 46.0392C35.2432 46.0392 34.2804 46.0392 33.3176 46.0392C32.378 46.0392 31.4268 46.0392 30.4872 46.0392C29.5708 46.0392 28.6544 46.0392 27.738 46.0392C26.8564 46.0392 25.9748 46.0392 25.0932 46.0392C24.258 46.0392 23.4112 46.0392 22.576 46.0392C21.7872 46.0392 20.9984 46.0392 20.2096 46.0392C19.4788 46.0392 18.748 46.0392 18.0172 46.0392C17.356 46.0392 16.6948 46.0392 16.022 46.0392C15.4304 46.0392 14.8388 46.0392 14.2588 46.0392C13.7484 46.0392 13.2496 46.0392 12.7392 46.0392C12.3216 46.0392 11.904 46.0392 11.4864 46.0392C10.9296 46.0392 10.3728 46.0392 9.81599 46.0508C9.50279 46.0624 9.14319 46.0276 8.93439 45.7724C8.78359 45.5752 8.70239 45.3316 8.66759 45.088C8.57479 44.5312 8.62119 43.9512 8.67919 43.3944C8.73719 42.8376 9.11999 42.3504 9.65359 42.1764C10.1524 42.014 10.7324 41.7356 10.9064 41.2368C11.2312 40.3088 11.7068 40.3668 11.7068 40.3668C11.7068 40.3668 12.6812 40.8888 13.0872 40.3436C13.4932 39.7984 14.1312 39.9492 14.3168 40.216C14.514 40.4712 14.746 40.3436 14.746 40.3436C14.746 40.3436 15.2216 39.4388 16.95 40.796C17.5532 41.2716 18.0404 41.2484 18.4232 41.028C19.2004 38.4876 19.3396 32.6064 19.4556 31.4812C19.7224 28.906 20.488 25.9712 21.6132 23.7788C21.6132 23.7788 21.6132 23.7788 21.6132 23.7672C21.822 23.3612 21.6712 22.8508 21.2652 22.6304C18.69 21.2268 16.2192 19.742 14.4096 18.6052C12.7972 17.5844 10.2104 15.5892 8.59799 14.0464C5.23399 10.8332 -1.28521 1.6228 0.222789 0.0220009C0.222789 0.0220009 14.398 -0.952398 28.1324 15.914C28.782 16.7144 29.9188 16.958 30.8468 16.5056C31.1716 16.3432 31.508 16.1924 31.8328 16.0416C34.0948 15.0672 36.5308 14.4872 38.99 14.3248C41.8088 14.1392 44.6508 14.4756 47.342 15.3572C48.3164 15.682 49.2792 16.0764 50.1956 16.5288C51.1236 16.9928 52.2604 16.7492 52.9216 15.9488C66.6676 -0.963997 80.866 0.0104019 80.866 0.0104019C82.3972 1.6576 75.8664 10.868 72.5024 14.0812Z" fill="black"/>
<path d="M11.0456 42.304C11.2776 40.7612 11.8576 41.2368 12.2056 41.7124C12.3448 41.9096 12.6464 41.898 12.774 41.6892C13.6788 40.216 14.0152 40.97 14.108 41.318C14.1312 41.4108 14.2008 41.4804 14.2936 41.5152C14.4096 41.55 14.5256 41.5152 14.6068 41.4224C15.8828 39.7752 16.08 40.9932 16.1032 41.724C16.1032 41.898 16.3004 41.9908 16.4512 41.898C17.8548 40.9352 17.5184 43.5104 17.5184 43.5104C18.226 43.638 18.6436 44.4152 18.8524 44.9372C18.9452 45.1692 18.7712 45.4128 18.5276 45.4128H9.68838C8.44718 42.884 11.0456 42.304 11.0456 42.304ZM69.7764 42.304C69.5444 40.7612 68.9644 41.2368 68.6164 41.7124C68.4772 41.9096 68.1756 41.898 68.048 41.6892C67.1432 40.216 66.8068 40.97 66.714 41.318C66.6908 41.4108 66.6212 41.4804 66.5284 41.5152C66.4124 41.55 66.2964 41.5152 66.2152 41.4224C64.9392 39.7752 64.742 40.9932 64.7188 41.724C64.7188 41.898 64.5216 41.9908 64.3708 41.898C62.9672 40.9352 63.3036 43.5104 63.3036 43.5104C62.596 43.638 62.1784 44.4152 61.9696 44.9372C61.8768 45.1692 62.0508 45.4128 62.2944 45.4128H71.1336C72.3748 42.884 69.7764 42.304 69.7764 42.304ZM74.2192 2.9452C73.7436 6.17 72.6764 12.9212 69.8924 15.2644C68.2336 16.6564 66.0992 18.0368 64.5332 19.0228C63.6632 19.568 62.8396 20.206 61.9812 20.7628C61.5172 21.0644 61.03 21.3428 60.5312 21.5864C60.1832 21.7488 59.4872 22.1896 59.1044 22.0852C58.9536 22.0504 58.826 21.946 58.6984 21.8532C58.5708 21.7604 58.4316 21.6676 58.2808 21.6444C58.014 21.598 57.9096 21.7604 57.8516 21.9808C57.782 22.2592 57.8284 22.5608 57.9676 22.816C59.5452 25.6464 60.6008 28.848 60.8676 32.0728C60.972 33.3372 60.8212 34.59 60.8908 35.8428C60.9604 37.0376 61.0648 38.2324 61.3432 39.3924C61.4128 39.694 61.494 39.9956 61.5868 40.2856C61.6332 40.4364 61.842 41.1324 61.5172 41.2136C61.4592 41.2252 61.4012 41.2136 61.3548 41.202C59.8352 40.796 58.4896 40.3552 56.9584 41.0396C55.926 41.5036 55.4272 42.2692 54.8356 43.2088C54.6152 43.5684 54.418 43.9396 54.244 44.3224C54.1628 44.5196 54.0932 44.7168 54.012 44.914C54.0004 44.9604 53.9192 45.436 53.9192 45.436C53.9192 45.436 50.8916 45.4476 50.2536 45.4476C49.0008 45.436 47.748 45.436 46.4952 45.436C45.8108 45.436 45.1264 45.4244 44.442 45.4244L44.5348 44.5892C44.558 44.5892 44.5812 44.5892 44.616 44.5892C45.544 44.5892 46.5764 44.2412 47.5392 43.1508C47.632 43.0464 47.6204 42.884 47.516 42.7796C47.4116 42.6868 47.2492 42.6984 47.1448 42.8028C44.9524 45.3084 42.3772 43.3828 42.1104 43.174C41.9132 42.9536 40.5676 41.5964 37.7952 43.58C37.0528 44.1136 36.2988 44.3224 35.5796 44.1948C34.292 43.9628 33.4568 42.7564 33.4452 42.7448C33.364 42.6288 33.2016 42.594 33.0856 42.6752C32.9696 42.7564 32.9348 42.9188 33.016 43.0348C33.0508 43.0928 33.9788 44.4384 35.4752 44.7052C35.6492 44.74 35.8232 44.7516 35.9972 44.7516C36.09 44.7516 36.1712 44.7516 36.264 44.74L36.2872 45.3896C35.4868 45.3896 34.6864 45.378 33.8744 45.3664C32.1692 45.3432 30.4756 45.3084 28.7704 45.2852C28.1208 45.2736 27.4596 45.2504 26.8216 45.2504C26.8564 43.9164 25.9168 42.478 24.9308 41.666C23.7244 40.6684 21.9728 40.564 20.5112 40.9236C20.1748 41.0048 19.2584 41.55 19.0032 41.1556C18.8292 40.8772 19.386 40.3552 19.4672 40.1C19.9892 38.4528 20.082 36.6084 20.256 34.9032C20.488 32.618 20.3952 30.3444 20.8012 28.0824C20.9752 27.1196 21.242 26.1568 21.6364 25.2636C21.8336 24.8112 22.0656 24.3704 22.3324 23.9528C22.5528 23.6048 22.8312 23.3032 23.04 22.9436C23.2024 22.6884 23.6896 21.6676 23.0632 21.6328C22.576 21.6096 22.46 22.0388 21.6248 21.9344C20.604 21.8068 19.5948 21.1572 18.7596 20.6004C17.9244 20.0552 17.1472 19.4404 16.3004 18.9068C14.7344 17.9208 12.0664 16.2968 10.5468 14.754C8.11078 12.2716 6.41718 3.5136 6.85798 2.226C6.85798 2.226 14.92 2.01721 27.7612 17.2132C28.4108 17.9788 29.5012 18.2108 30.4176 17.77C30.7192 17.6192 31.0324 17.48 31.3456 17.3408C33.538 16.4012 37.0528 15.7052 39.4308 15.5544C42.1568 15.3688 44.906 15.7052 47.5044 16.5636C48.4556 16.8768 49.894 17.5148 50.7872 17.9556C51.692 18.408 52.9216 17.654 53.548 16.8768C62.6192 5.5668 70.4376 2.7828 73.3376 2.168C73.906 2.0172 74.3004 2.3768 74.2192 2.9452ZM32.4592 34.6132C32.4592 32.3744 30.638 30.5532 28.3992 30.5532C26.1604 30.5532 24.3392 32.3744 24.3392 34.6132C24.3392 36.852 26.1604 38.6732 28.3992 38.6732C30.638 38.6616 32.4592 36.852 32.4592 34.6132ZM41.2984 36.9796H40.3472H39.396C38.932 36.9796 38.6536 37.49 38.8972 37.8728L39.338 38.5804C39.8368 39.2532 40.846 39.2532 41.3448 38.5804L41.7856 37.8728C42.0408 37.49 41.7624 36.9796 41.2984 36.9796ZM56.5292 34.6132C56.5292 32.3744 54.708 30.5532 52.4692 30.5532C50.2304 30.5532 48.4092 32.3744 48.4092 34.6132C48.4092 36.852 50.2304 38.6732 52.4692 38.6732C54.7196 38.6616 56.5292 36.852 56.5292 34.6132Z" fill="#FCD20B"/>
<path d="M19.8731 45.3896C19.8731 45.3896 18.4695 44.2644 18.6203 42.6868C18.6203 42.6868 24.1303 38.8704 25.9863 45.4012L19.8731 45.3896ZM60.8559 45.3896C60.8559 45.3896 62.2595 44.2644 62.1087 42.6868C62.1087 42.6868 56.5987 38.8704 54.7427 45.4012L60.8559 45.3896ZM43.9895 45.5056L44.0127 44.9372C44.0243 44.7284 43.8851 44.5544 43.6879 44.508C43.2239 44.4152 42.4119 44.1716 41.9827 43.6148C41.3563 42.8144 39.6279 42.71 38.7347 43.6612C38.1895 44.2528 37.5631 44.4384 37.1571 44.4964C36.9135 44.5312 36.7395 44.74 36.7395 44.9836V45.4708L43.9895 45.5056Z" fill="#ED1C24"/>
<path d="M31.2527 33.2792C31.2527 34.3116 30.4175 35.1352 29.3966 35.1352C28.3642 35.1352 27.5406 34.3 27.5406 33.2792C27.5406 32.2468 28.3758 31.4232 29.3966 31.4232C30.4175 31.4232 31.2527 32.2584 31.2527 33.2792ZM51.3671 31.4232C50.3347 31.4232 49.5111 32.2584 49.5111 33.2792C49.5111 34.3116 50.3463 35.1352 51.3671 35.1352C52.3995 35.1352 53.2231 34.3 53.2231 33.2792C53.2231 32.2584 52.3879 31.4232 51.3671 31.4232Z" fill="white"/>
<path d="M30.9976 35.5412C30.9976 35.5876 31.0092 35.6456 31.0092 35.692C31.0092 37.0144 29.942 38.0816 28.6196 38.0816C27.4016 38.0816 26.404 37.1768 26.2532 36.0052C26.8796 36.1792 27.6568 36.2604 28.4804 36.2024C29.4664 36.1328 30.3596 35.8892 30.9976 35.5412ZM49.7548 35.5412C49.7548 35.5876 49.7432 35.6456 49.7432 35.692C49.7432 37.0144 50.8104 38.0816 52.1328 38.0816C53.3508 38.0816 54.3484 37.1768 54.4992 36.0052C53.8728 36.1792 53.0956 36.2604 52.272 36.2024C51.286 36.1328 50.3928 35.8892 49.7548 35.5412Z" fill="#765241"/>
</svg>
