<svg width="26" height="26" viewBox="0 0 26 26" fill="#464646" xmlns="http://www.w3.org/2000/svg">
<path d="M24.6422 22.9336L19.5691 17.8604C19.3197 17.612 18.982 17.4724 18.6299 17.4724C18.2778 17.4724 17.9401 17.612 17.6906 17.8604C16.3539 19.153 14.6261 19.9656 12.7779 20.1709C10.9298 20.3763 9.06576 19.9628 7.47784 18.9952C5.88991 18.0275 4.6678 16.5605 4.00299 14.8239C3.33817 13.0873 3.26818 11.1793 3.80401 9.39864C4.33982 7.61801 5.45118 6.06543 6.96396 4.98411C8.47674 3.90279 10.3055 3.35384 12.1637 3.42325C14.0219 3.49266 15.8046 4.17651 17.2325 5.36766C18.6603 6.55882 19.6528 8.18999 20.0543 10.0056C20.342 11.3228 20.3124 12.6895 19.9679 13.9931C19.9271 14.1457 19.917 14.3049 19.9377 14.4616C19.9586 14.6182 20.0101 14.7692 20.0893 14.9059C20.1684 15.0426 20.2737 15.1624 20.3992 15.2585C20.5247 15.3545 20.6679 15.4249 20.8206 15.4655C21.1289 15.5478 21.4573 15.504 21.7334 15.3441C22.0095 15.1842 22.2109 14.9212 22.293 14.6128C22.955 12.1251 22.7089 9.48299 21.5991 7.16025C20.4894 4.83752 18.5884 2.98612 16.2372 1.93807C13.886 0.890024 11.2383 0.713893 8.76889 1.44126C6.29955 2.16862 4.1701 3.75192 2.76243 5.90718C1.35476 8.06245 0.760954 10.6487 1.0875 13.2021C1.41404 15.7556 2.63957 18.1092 4.54432 19.8409C6.44906 21.5726 8.90842 22.5689 11.4813 22.6515C14.0543 22.734 16.5724 21.8973 18.5843 20.2913L22.9416 24.6438C23.0532 24.7557 23.1857 24.8445 23.3316 24.905C23.4776 24.9656 23.634 24.9967 23.7919 24.9967C23.9499 24.9967 24.1064 24.9656 24.2523 24.905C24.3981 24.8445 24.5307 24.7557 24.6422 24.6438C24.7555 24.5321 24.8456 24.3989 24.907 24.2522C24.9684 24.1054 25 23.9478 25 23.7887C25 23.6296 24.9684 23.4721 24.907 23.3252C24.8456 23.1785 24.7555 23.0453 24.6422 22.9336Z" fill="#464646"/>
<circle cx="12" cy="12" r="6" stroke="none"/>
</svg>