<svg width="25" height="25" viewBox="0 0 25 25" fill="none" xmlns="http://www.w3.org/2000/svg">
<path d="M23.6834 21.9718L18.6014 16.8898C18.3516 16.6409 18.0133 16.5011 17.6606 16.5011C17.3079 16.5011 16.9696 16.6409 16.7197 16.8898C15.3806 18.1846 13.6498 18.9986 11.7984 19.2043C9.9471 19.41 8.07981 18.9958 6.48912 18.0265C4.89843 17.0572 3.67419 15.5876 3.00822 13.848C2.34224 12.1084 2.27213 10.197 2.80889 8.41327C3.34564 6.62954 4.45893 5.07425 5.97435 3.99105C7.48976 2.90785 9.32169 2.35794 11.1831 2.42747C13.0446 2.497 14.8304 3.18204 16.2608 4.37527C17.6911 5.5685 18.6853 7.20251 19.0875 9.02131C19.3757 10.3408 19.346 11.7099 19.0009 13.0157C18.9601 13.1686 18.9499 13.3281 18.9707 13.485C18.9916 13.6419 19.0432 13.7932 19.1225 13.9301C19.2018 14.0671 19.3073 14.1871 19.433 14.2833C19.5587 14.3795 19.7022 14.45 19.8551 14.4907C20.164 14.5731 20.4929 14.5293 20.7695 14.3691C21.0461 14.2089 21.2478 13.9454 21.3301 13.6365C21.9932 11.1445 21.7467 8.49776 20.635 6.17098C19.5233 3.8442 17.619 1.98958 15.2637 0.939705C12.9084 -0.110167 10.2561 -0.286605 7.78242 0.44203C5.30878 1.17066 3.17562 2.75671 1.7655 4.91573C0.355381 7.07475 -0.239462 9.66551 0.0876501 12.2234C0.414762 14.7813 1.64243 17.139 3.55049 18.8737C5.45855 20.6084 7.92219 21.6065 10.4996 21.6892C13.077 21.7719 15.5995 20.9337 17.6149 19.3249L21.9798 23.685C22.0916 23.7971 22.2243 23.886 22.3705 23.9466C22.5167 24.0073 22.6734 24.0385 22.8316 24.0385C22.9899 24.0385 23.1466 24.0073 23.2928 23.9466C23.4389 23.886 23.5717 23.7971 23.6834 23.685C23.7969 23.5731 23.8871 23.4397 23.9486 23.2927C24.0101 23.1456 24.0418 22.9878 24.0418 22.8284C24.0418 22.669 24.0101 22.5112 23.9486 22.3641C23.8871 22.2171 23.7969 22.0837 23.6834 21.9718Z" fill="#464646"/>
<path d="M14.4723 14.4595C14.2801 14.2809 14.034 14.1712 13.7726 14.1477C13.5113 14.1242 13.2496 14.1881 13.0285 14.3295C12.4046 14.7145 11.6889 14.9252 10.9559 14.9395C10.2229 14.9539 9.49946 14.7715 8.86091 14.4113C8.64444 14.285 8.39287 14.2322 8.14388 14.2608C7.89489 14.2895 7.66187 14.398 7.47972 14.5701L7.40753 14.6375C7.27829 14.7606 7.17921 14.912 7.11801 15.0796C7.05682 15.2473 7.03515 15.4269 7.05471 15.6043C7.07427 15.7818 7.13453 15.9523 7.23078 16.1026C7.32704 16.253 7.45669 16.3791 7.60966 16.4711C8.6385 17.0643 9.80981 17.3652 10.9972 17.3415C12.1845 17.3177 13.3429 16.9702 14.3472 16.3363C14.4939 16.2431 14.6178 16.1181 14.7097 15.9705C14.8016 15.8229 14.8592 15.6566 14.8781 15.4838C14.8971 15.311 14.8769 15.1361 14.8192 14.9721C14.7614 14.8082 14.6675 14.6593 14.5445 14.5365L14.4723 14.4595Z" fill="#464646"/>
</svg>
